<svg width="512" height="512" viewBox="0 0 512 512" xmlns="http://www.w3.org/2000/svg" class="drop-shadow-2xl"><circle cx="256" cy="256" r="250" fill="#ffffff" stroke="#2a9d8f" stroke-width="6"/><g><line x1="412" y1="256" x2="256" y2="412" stroke="#000" stroke-width="5.5" stroke-opacity="0.7157844650205761" stroke-linecap="round"/><line x1="412" y1="256" x2="120.90003700962757" y2="334" stroke="#000" stroke-width="5.5" stroke-opacity="0.524866255144033" stroke-linecap="round"/><line x1="391.09996299037243" y1="334" x2="120.90003700962757" y2="178" stroke="#000" stroke-width="5.5" stroke-opacity="0.94377829218107" stroke-linecap="round"/><line x1="391.09996299037243" y1="334" x2="334" y2="120.90003700962757" stroke="#000" stroke-width="5.5" stroke-opacity="0.706195987654321" stroke-linecap="round"/><line x1="334" y1="391.09996299037243" x2="120.90003700962757" y2="178" stroke="#000" stroke-width="5.5" stroke-opacity="0.9001903292181069" stroke-linecap="round"/><line x1="334" y1="391.09996299037243" x2="334" y2="120.90003700962757" stroke="#000" stroke-width="5.5" stroke-opacity="0.6903858024691358" stroke-linecap="round"/><line x1="256" y1="412" x2="255.99999999999997" y2="100" stroke="#000" stroke-width="5.5" stroke-opacity="0.42290123456790124" stroke-linecap="round"/><line x1="256" y1="412" x2="334" y2="120.90003700962757" stroke="#000" stroke-width="5.5" stroke-opacity="0.7892952674897119" stroke-linecap="round"/><line x1="178.00000000000003" y1="391.09996299037243" x2="177.99999999999994" y2="120.90003700962762" stroke="#000" stroke-width="5.5" stroke-opacity="0.6831944444444444" stroke-linecap="round"/><line x1="178.00000000000003" y1="391.09996299037243" x2="255.99999999999997" y2="100" stroke="#000" stroke-width="5.5" stroke-opacity="0.6255144032921811" stroke-linecap="round"/><line x1="178.00000000000003" y1="391.09996299037243" x2="334" y2="120.90003700962757" stroke="#000" stroke-width="5.5" stroke-opacity="0.559809670781893" stroke-linecap="round"/><line x1="120.90003700962757" y1="334" x2="177.99999999999994" y2="120.90003700962762" stroke="#000" stroke-width="5.5" stroke-opacity="0.966576646090535" stroke-linecap="round"/><line x1="120.90003700962757" y1="334" x2="255.99999999999997" y2="100" stroke="#000" stroke-width="5.5" stroke-opacity="0.43821759259259263" stroke-linecap="round"/><line x1="100" y1="256" x2="391.0999629903724" y2="177.99999999999994" stroke="#000" stroke-width="5.5" stroke-opacity="0.5679552469135802" stroke-linecap="round"/><line x1="177.99999999999994" y1="120.90003700962762" x2="391.0999629903724" y2="177.99999999999994" stroke="#000" stroke-width="5.5" stroke-opacity="0.9008384773662552" stroke-linecap="round"/></g><g><g><circle cx="412" cy="256" r="32" fill="#2a9d8f" fill-opacity="0.1"/><circle cx="412" cy="256" r="16" fill="#2a9d8f" stroke="#000" stroke-width="4"/></g><g><circle cx="391.09996299037243" cy="334" r="32" fill="#e9c46a" fill-opacity="0.1"/><circle cx="391.09996299037243" cy="334" r="16" fill="#e9c46a" stroke="#000" stroke-width="4"/></g><g><circle cx="334" cy="391.09996299037243" r="32" fill="#e76f51" fill-opacity="0.1"/><circle cx="334" cy="391.09996299037243" r="16" fill="#e76f51" stroke="#000" stroke-width="4"/></g><g><circle cx="256" cy="412" r="32" fill="#f4a261" fill-opacity="0.1"/><circle cx="256" cy="412" r="16" fill="#f4a261" stroke="#000" stroke-width="4"/></g><g><circle cx="178.00000000000003" cy="391.09996299037243" r="32" fill="#3a5968" fill-opacity="0.1"/><circle cx="178.00000000000003" cy="391.09996299037243" r="16" fill="#3a5968" stroke="#000" stroke-width="4"/></g><g><circle cx="120.90003700962757" cy="334" r="32" fill="#2a9d8f" fill-opacity="0.1"/><circle cx="120.90003700962757" cy="334" r="16" fill="#2a9d8f" stroke="#000" stroke-width="4"/></g><g><circle cx="100" cy="256" r="32" fill="#e9c46a" fill-opacity="0.1"/><circle cx="100" cy="256" r="16" fill="#e9c46a" stroke="#000" stroke-width="4"/></g><g><circle cx="120.90003700962757" cy="178" r="32" fill="#e76f51" fill-opacity="0.1"/><circle cx="120.90003700962757" cy="178" r="16" fill="#e76f51" stroke="#000" stroke-width="4"/></g><g><circle cx="177.99999999999994" cy="120.90003700962762" r="32" fill="#f4a261" fill-opacity="0.1"/><circle cx="177.99999999999994" cy="120.90003700962762" r="16" fill="#f4a261" stroke="#000" stroke-width="4"/></g><g><circle cx="255.99999999999997" cy="100" r="32" fill="#3a5968" fill-opacity="0.1"/><circle cx="255.99999999999997" cy="100" r="16" fill="#3a5968" stroke="#000" stroke-width="4"/></g><g><circle cx="334" cy="120.90003700962757" r="32" fill="#2a9d8f" fill-opacity="0.1"/><circle cx="334" cy="120.90003700962757" r="16" fill="#2a9d8f" stroke="#000" stroke-width="4"/></g><g><circle cx="391.0999629903724" cy="177.99999999999994" r="32" fill="#e9c46a" fill-opacity="0.1"/><circle cx="391.0999629903724" cy="177.99999999999994" r="16" fill="#e9c46a" stroke="#000" stroke-width="4"/></g></g></svg>